<?xml version="1.0" encoding="UTF-8"?>
<svg xmlns="http://www.w3.org/2000/svg" viewBox="0 0 64 64">
  <rect x="2" y="6" width="60" height="52" rx="6" fill="#1a1a1a" stroke="#3a3a3a" stroke-width="1.5"/>
  <g fill="none" stroke="#ffaa00" stroke-width="1.5">
    <rect x="8"  y="12" width="11" height="11" rx="2"/>
    <rect x="22" y="12" width="11" height="11" rx="2" stroke="#00ddff"/>
    <rect x="36" y="12" width="11" height="11" rx="2" stroke="#cc66ff"/>
    <rect x="50" y="12" width="6"  height="11" rx="2"/>
  </g>
  <g fill="#33ccff" stroke="#33ccff" stroke-width="1.5">
    <rect x="8"  y="26" width="11" height="11" rx="2" fill-opacity="0.15"/>
    <rect x="22" y="26" width="11" height="11" rx="2" fill-opacity="0.15"/>
    <rect x="36" y="26" width="11" height="11" rx="2" fill-opacity="0.15"/>
    <rect x="50" y="26" width="6"  height="11" rx="2" fill-opacity="0.15"/>
  </g>
  <g fill="none" stroke="#aaaaaa" stroke-width="1.5">
    <rect x="8"  y="40" width="11" height="11" rx="2"/>
    <rect x="22" y="40" width="11" height="11" rx="2"/>
    <rect x="36" y="40" width="11" height="11" rx="2"/>
    <rect x="50" y="40" width="6"  height="11" rx="2"/>
  </g>
</svg>
